<svg xmlns="http://www.w3.org/2000/svg" xmlns:xlink="http://www.w3.org/1999/xlink" width="500" zoomAndPan="magnify" viewBox="0 0 375 374.999991" height="500" preserveAspectRatio="xMidYMid meet" version="1.2"><defs><clipPath id="2c902381b5"><path d="M 7 6.976562 L 367.726562 6.976562 L 367.726562 367.726562 L 7 367.726562 Z M 7 6.976562 "/></clipPath></defs><g id="2fd8522754"><g clip-rule="nonzero" clip-path="url(#2c902381b5)"><path style=" stroke:none;fill-rule:nonzero;fill:#009e83;fill-opacity:1;" d="M 187.472656 6.949219 C 87.847656 6.949219 7.089844 87.707031 7.089844 187.332031 C 7.089844 286.957031 87.847656 367.714844 187.472656 367.714844 C 287.097656 367.714844 367.851562 286.957031 367.851562 187.332031 C 367.851562 87.707031 287.097656 6.949219 187.472656 6.949219 Z M 187.472656 346.265625 C 99.691406 346.265625 28.539062 275.105469 28.539062 187.328125 C 28.539062 99.550781 99.695312 28.390625 187.472656 28.390625 C 275.25 28.390625 346.40625 99.550781 346.40625 187.328125 C 346.40625 275.105469 275.25 346.265625 187.472656 346.265625 Z M 187.472656 346.265625 "/></g><path style=" stroke:none;fill-rule:nonzero;fill:#009e83;fill-opacity:1;" d="M 221.054688 84.753906 C 221.054688 85.855469 221 86.953125 220.894531 88.046875 C 220.785156 89.140625 220.625 90.226562 220.410156 91.308594 C 220.195312 92.386719 219.925781 93.449219 219.609375 94.503906 C 219.289062 95.554688 218.917969 96.589844 218.5 97.605469 C 218.078125 98.621094 217.609375 99.617188 217.089844 100.585938 C 216.570312 101.554688 216.007812 102.496094 215.394531 103.410156 C 214.785156 104.328125 214.128906 105.207031 213.433594 106.058594 C 212.734375 106.910156 211.996094 107.722656 211.21875 108.5 C 210.441406 109.277344 209.628906 110.015625 208.777344 110.714844 C 207.925781 111.410156 207.042969 112.066406 206.128906 112.675781 C 205.214844 113.289062 204.273438 113.851562 203.304688 114.371094 C 202.332031 114.890625 201.339844 115.359375 200.324219 115.78125 C 199.308594 116.199219 198.273438 116.570312 197.222656 116.890625 C 196.167969 117.210938 195.105469 117.476562 194.023438 117.691406 C 192.945312 117.90625 191.859375 118.066406 190.765625 118.175781 C 189.671875 118.28125 188.574219 118.335938 187.472656 118.335938 C 186.375 118.335938 185.277344 118.28125 184.183594 118.175781 C 183.085938 118.066406 182 117.90625 180.921875 117.691406 C 179.84375 117.476562 178.777344 117.210938 177.726562 116.890625 C 176.671875 116.570312 175.640625 116.199219 174.621094 115.78125 C 173.605469 115.359375 172.613281 114.890625 171.644531 114.371094 C 170.675781 113.851562 169.730469 113.289062 168.816406 112.675781 C 167.902344 112.066406 167.019531 111.410156 166.171875 110.714844 C 165.320312 110.015625 164.507812 109.277344 163.730469 108.5 C 162.949219 107.722656 162.214844 106.910156 161.515625 106.058594 C 160.816406 105.207031 160.164062 104.328125 159.550781 103.410156 C 158.941406 102.496094 158.375 101.554688 157.859375 100.585938 C 157.339844 99.617188 156.871094 98.621094 156.449219 97.605469 C 156.027344 96.589844 155.660156 95.554688 155.339844 94.503906 C 155.019531 93.449219 154.753906 92.386719 154.539062 91.308594 C 154.324219 90.226562 154.164062 89.140625 154.054688 88.046875 C 153.945312 86.953125 153.894531 85.855469 153.894531 84.753906 C 153.894531 83.65625 153.945312 82.558594 154.054688 81.464844 C 154.164062 80.371094 154.324219 79.28125 154.539062 78.203125 C 154.753906 77.125 155.019531 76.058594 155.339844 75.007812 C 155.660156 73.957031 156.027344 72.921875 156.449219 71.90625 C 156.871094 70.890625 157.339844 69.894531 157.859375 68.925781 C 158.375 67.957031 158.941406 67.011719 159.550781 66.097656 C 160.164062 65.183594 160.816406 64.300781 161.515625 63.453125 C 162.214844 62.601562 162.949219 61.789062 163.730469 61.011719 C 164.507812 60.234375 165.320312 59.496094 166.171875 58.796875 C 167.019531 58.101562 167.902344 57.445312 168.816406 56.835938 C 169.730469 56.222656 170.675781 55.660156 171.644531 55.140625 C 172.613281 54.621094 173.605469 54.152344 174.621094 53.730469 C 175.640625 53.308594 176.671875 52.941406 177.726562 52.621094 C 178.777344 52.300781 179.84375 52.035156 180.921875 51.820312 C 182 51.605469 183.085938 51.445312 184.183594 51.335938 C 185.277344 51.230469 186.375 51.175781 187.472656 51.175781 C 188.574219 51.175781 189.671875 51.230469 190.765625 51.335938 C 191.859375 51.445312 192.945312 51.605469 194.023438 51.820312 C 195.105469 52.035156 196.167969 52.300781 197.222656 52.621094 C 198.273438 52.941406 199.308594 53.308594 200.324219 53.730469 C 201.339844 54.152344 202.332031 54.621094 203.304688 55.140625 C 204.273438 55.660156 205.214844 56.222656 206.128906 56.835938 C 207.042969 57.445312 207.925781 58.101562 208.777344 58.796875 C 209.628906 59.496094 210.441406 60.234375 211.21875 61.011719 C 211.996094 61.789062 212.734375 62.601562 213.433594 63.453125 C 214.128906 64.300781 214.785156 65.183594 215.394531 66.097656 C 216.007812 67.011719 216.570312 67.957031 217.089844 68.925781 C 217.609375 69.894531 218.078125 70.890625 218.5 71.90625 C 218.917969 72.921875 219.289062 73.957031 219.609375 75.007812 C 219.925781 76.058594 220.195312 77.125 220.410156 78.203125 C 220.625 79.28125 220.785156 80.371094 220.894531 81.464844 C 221 82.558594 221.054688 83.65625 221.054688 84.753906 Z M 221.054688 84.753906 "/><path style=" stroke:none;fill-rule:nonzero;fill:#009e83;fill-opacity:1;" d="M 218.945312 294 C 218.945312 310.171875 204.964844 323.277344 187.71875 323.277344 C 170.476562 323.277344 156.492188 310.171875 156.492188 294 L 156.492188 159.6875 C 156.492188 143.519531 170.476562 130.410156 187.71875 130.410156 C 204.964844 130.410156 218.945312 143.519531 218.945312 159.6875 Z M 218.945312 294 "/></g></svg>