<svg xmlns="http://www.w3.org/2000/svg" xmlns:xlink="http://www.w3.org/1999/xlink" width="500" zoomAndPan="magnify" viewBox="0 0 375 374.999991" height="500" preserveAspectRatio="xMidYMid meet" version="1.2"><defs><clipPath id="fcce3d5b79"><path d="M 6.582031 6.582031 L 368.082031 6.582031 L 368.082031 368.082031 L 6.582031 368.082031 Z M 6.582031 6.582031 "/></clipPath></defs><g id="7345bd7b6d"><g style="fill:#000000;fill-opacity:1;"><g transform="translate(217.854233, 169.508574)"><path style="stroke:none" d="M 5.828125 -1.375 L 6.234375 -0.453125 C 6.035156 -0.253906 5.769531 -0.101562 5.4375 0 C 5.101562 0.113281 4.742188 0.171875 4.359375 0.171875 C 2.710938 0.171875 1.890625 -0.664062 1.890625 -2.34375 L 1.890625 -7.578125 L 0.390625 -7.578125 L 0.390625 -8.625 L 1.890625 -8.625 L 1.890625 -10.453125 L 3.171875 -10.65625 L 3.171875 -8.625 L 5.9375 -8.625 L 5.9375 -7.578125 L 3.171875 -7.578125 L 3.171875 -2.46875 C 3.171875 -1.476562 3.597656 -0.984375 4.453125 -0.984375 C 4.921875 -0.984375 5.328125 -1.113281 5.671875 -1.375 Z M 5.828125 -1.375 "/></g></g><path style=" stroke:none;fill-rule:nonzero;fill:#009e83;fill-opacity:1;" d="M 110.636719 264.03125 L 217.457031 217.457031 L 264.332031 110.9375 L 157.511719 157.511719 Z M 174.5625 174.5625 C 174.980469 174.140625 175.417969 173.746094 175.875 173.367188 C 176.332031 172.992188 176.808594 172.640625 177.300781 172.3125 C 177.792969 171.980469 178.296875 171.675781 178.820312 171.398438 C 179.34375 171.117188 179.878906 170.867188 180.425781 170.636719 C 180.972656 170.410156 181.527344 170.210938 182.09375 170.039062 C 182.660156 169.867188 183.234375 169.722656 183.816406 169.609375 C 184.394531 169.492188 184.980469 169.40625 185.570312 169.347656 C 186.160156 169.289062 186.75 169.257812 187.34375 169.257812 C 187.933594 169.257812 188.523438 169.289062 189.113281 169.34375 C 189.703125 169.402344 190.289062 169.488281 190.871094 169.605469 C 191.449219 169.71875 192.023438 169.863281 192.589844 170.035156 C 193.15625 170.207031 193.714844 170.40625 194.261719 170.632812 C 194.808594 170.859375 195.34375 171.113281 195.867188 171.390625 C 196.386719 171.667969 196.894531 171.972656 197.386719 172.300781 C 197.878906 172.632812 198.355469 172.984375 198.8125 173.359375 C 199.269531 173.734375 199.710938 174.132812 200.128906 174.550781 C 200.546875 174.96875 200.945312 175.40625 201.320312 175.863281 C 201.695312 176.324219 202.046875 176.796875 202.378906 177.289062 C 202.707031 177.78125 203.011719 178.289062 203.289062 178.8125 C 203.570312 179.332031 203.820312 179.867188 204.046875 180.414062 C 204.273438 180.960938 204.472656 181.519531 204.644531 182.085938 C 204.816406 182.652344 204.960938 183.226562 205.078125 183.808594 C 205.191406 184.386719 205.28125 184.972656 205.335938 185.5625 C 205.394531 186.152344 205.425781 186.742188 205.425781 187.332031 C 205.425781 187.925781 205.394531 188.515625 205.335938 189.105469 C 205.28125 189.695312 205.191406 190.28125 205.078125 190.859375 C 204.960938 191.441406 204.816406 192.015625 204.644531 192.582031 C 204.472656 193.148438 204.273438 193.707031 204.046875 194.253906 C 203.820312 194.800781 203.570312 195.335938 203.289062 195.855469 C 203.011719 196.378906 202.707031 196.886719 202.378906 197.378906 C 202.046875 197.871094 201.695312 198.34375 201.320312 198.804688 C 200.945312 199.261719 200.546875 199.699219 200.128906 200.117188 C 199.710938 200.535156 199.269531 200.933594 198.8125 201.308594 C 198.355469 201.683594 197.878906 202.035156 197.386719 202.367188 C 196.894531 202.695312 196.386719 203 195.867188 203.277344 C 195.34375 203.554688 194.808594 203.808594 194.261719 204.035156 C 193.714844 204.261719 193.15625 204.460938 192.589844 204.632812 C 192.023438 204.804688 191.449219 204.949219 190.871094 205.0625 C 190.289062 205.179688 189.703125 205.265625 189.113281 205.324219 C 188.523438 205.378906 187.933594 205.410156 187.34375 205.410156 C 186.75 205.410156 186.160156 205.378906 185.570312 205.320312 C 184.980469 205.261719 184.394531 205.175781 183.816406 205.058594 C 183.234375 204.945312 182.660156 204.800781 182.09375 204.628906 C 181.527344 204.457031 180.972656 204.257812 180.425781 204.03125 C 179.878906 203.800781 179.34375 203.550781 178.820312 203.269531 C 178.296875 202.992188 177.792969 202.6875 177.300781 202.355469 C 176.808594 202.027344 176.332031 201.675781 175.875 201.300781 C 175.417969 200.921875 174.980469 200.527344 174.5625 200.105469 C 174.144531 199.6875 173.746094 199.25 173.371094 198.792969 C 172.996094 198.335938 172.644531 197.859375 172.316406 197.367188 C 171.988281 196.875 171.683594 196.371094 171.40625 195.847656 C 171.128906 195.328125 170.875 194.792969 170.648438 194.246094 C 170.421875 193.699219 170.222656 193.144531 170.050781 192.578125 C 169.878906 192.011719 169.738281 191.4375 169.621094 190.859375 C 169.507812 190.277344 169.417969 189.691406 169.363281 189.105469 C 169.304688 188.515625 169.273438 187.925781 169.273438 187.332031 C 169.273438 186.742188 169.304688 186.152344 169.363281 185.5625 C 169.417969 184.976562 169.507812 184.390625 169.621094 183.808594 C 169.738281 183.230469 169.878906 182.65625 170.050781 182.089844 C 170.222656 181.523438 170.421875 180.96875 170.648438 180.421875 C 170.875 179.875 171.128906 179.339844 171.40625 178.820312 C 171.683594 178.296875 171.988281 177.789062 172.316406 177.300781 C 172.644531 176.808594 172.996094 176.332031 173.371094 175.875 C 173.746094 175.417969 174.144531 174.980469 174.5625 174.5625 Z M 174.5625 174.5625 "/><g clip-rule="nonzero" clip-path="url(#fcce3d5b79)"><path style=" stroke:none;fill-rule:nonzero;fill:#009e83;fill-opacity:1;" d="M 356.035156 184.320312 L 368.082031 184.320312 C 368.035156 181.425781 367.917969 178.535156 367.730469 175.644531 C 367.546875 172.753906 367.289062 169.871094 366.964844 166.992188 C 366.636719 164.117188 366.242188 161.246094 365.78125 158.390625 C 365.316406 155.53125 364.785156 152.683594 364.183594 149.851562 C 363.585938 147.019531 362.917969 144.203125 362.179688 141.402344 C 361.445312 138.601562 360.644531 135.820312 359.773438 133.054688 C 358.90625 130.292969 357.96875 127.554688 356.96875 124.835938 C 355.96875 122.121094 354.902344 119.425781 353.773438 116.761719 C 352.640625 114.09375 351.449219 111.457031 350.191406 108.847656 C 348.933594 106.242188 347.617188 103.664062 346.234375 101.117188 C 344.855469 98.574219 343.414062 96.0625 341.910156 93.585938 C 340.410156 91.109375 338.847656 88.671875 337.230469 86.269531 C 335.613281 83.867188 333.9375 81.507812 332.203125 79.1875 C 330.472656 76.867188 328.683594 74.589844 326.84375 72.355469 C 325 70.121094 323.105469 67.929688 321.160156 65.785156 C 319.214844 63.644531 317.214844 61.546875 315.167969 59.5 C 313.121094 57.453125 311.023438 55.453125 308.882812 53.507812 C 306.738281 51.5625 304.546875 49.667969 302.3125 47.824219 C 300.078125 45.984375 297.800781 44.195312 295.480469 42.464844 C 293.160156 40.730469 290.800781 39.054688 288.398438 37.4375 C 285.996094 35.820312 283.558594 34.257812 281.082031 32.757812 C 278.605469 31.253906 276.09375 29.8125 273.550781 28.433594 C 271.003906 27.050781 268.429688 25.734375 265.820312 24.476562 C 263.210938 23.21875 260.574219 22.027344 257.90625 20.894531 C 255.242188 19.765625 252.546875 18.699219 249.832031 17.699219 C 247.113281 16.699219 244.375 15.761719 241.613281 14.894531 C 238.847656 14.023438 236.066406 13.222656 233.265625 12.488281 C 230.464844 11.75 227.648438 11.082031 224.816406 10.484375 C 221.984375 9.882812 219.136719 9.351562 216.277344 8.886719 C 213.421875 8.425781 210.550781 8.03125 207.675781 7.703125 C 204.796875 7.378906 201.914062 7.121094 199.023438 6.9375 C 196.132812 6.75 193.242188 6.632812 190.347656 6.582031 L 190.347656 18.632812 C 190.347656 19.035156 190.269531 19.417969 190.117188 19.785156 C 189.964844 20.15625 189.746094 20.480469 189.464844 20.765625 C 189.179688 21.046875 188.855469 21.265625 188.488281 21.417969 C 188.117188 21.570312 187.734375 21.644531 187.332031 21.644531 C 186.933594 21.644531 186.550781 21.570312 186.179688 21.417969 C 185.8125 21.265625 185.484375 21.046875 185.203125 20.765625 C 184.921875 20.480469 184.703125 20.15625 184.550781 19.785156 C 184.398438 19.417969 184.320312 19.035156 184.320312 18.632812 L 184.320312 6.582031 C 181.425781 6.632812 178.535156 6.75 175.644531 6.9375 C 172.753906 7.121094 169.871094 7.378906 166.992188 7.703125 C 164.117188 8.03125 161.246094 8.425781 158.390625 8.886719 C 155.53125 9.351562 152.683594 9.882812 149.851562 10.484375 C 147.019531 11.082031 144.203125 11.75 141.402344 12.488281 C 138.601562 13.222656 135.820312 14.023438 133.054688 14.894531 C 130.292969 15.761719 127.554688 16.699219 124.835938 17.699219 C 122.121094 18.699219 119.425781 19.765625 116.761719 20.894531 C 114.09375 22.027344 111.457031 23.21875 108.847656 24.476562 C 106.242188 25.734375 103.664062 27.050781 101.117188 28.433594 C 98.574219 29.8125 96.0625 31.253906 93.585938 32.757812 C 91.109375 34.257812 88.671875 35.820312 86.269531 37.4375 C 83.867188 39.054688 81.507812 40.730469 79.1875 42.464844 C 76.867188 44.195312 74.589844 45.984375 72.355469 47.824219 C 70.121094 49.667969 67.929688 51.5625 65.785156 53.507812 C 63.644531 55.453125 61.546875 57.453125 59.5 59.5 C 57.453125 61.546875 55.453125 63.644531 53.507812 65.785156 C 51.5625 67.929688 49.667969 70.121094 47.824219 72.355469 C 45.984375 74.589844 44.195312 76.867188 42.464844 79.1875 C 40.730469 81.507812 39.054688 83.867188 37.4375 86.269531 C 35.820312 88.671875 34.257812 91.109375 32.757812 93.585938 C 31.253906 96.0625 29.8125 98.574219 28.433594 101.117188 C 27.050781 103.664062 25.734375 106.242188 24.476562 108.847656 C 23.21875 111.457031 22.027344 114.09375 20.894531 116.761719 C 19.765625 119.425781 18.699219 122.121094 17.699219 124.835938 C 16.699219 127.554688 15.761719 130.292969 14.894531 133.054688 C 14.023438 135.820312 13.222656 138.601562 12.488281 141.402344 C 11.75 144.203125 11.082031 147.019531 10.484375 149.851562 C 9.882812 152.683594 9.351562 155.53125 8.886719 158.390625 C 8.425781 161.246094 8.03125 164.117188 7.703125 166.992188 C 7.378906 169.871094 7.121094 172.753906 6.9375 175.644531 C 6.75 178.535156 6.632812 181.425781 6.582031 184.320312 L 18.632812 184.320312 C 19.035156 184.320312 19.417969 184.398438 19.785156 184.550781 C 20.15625 184.703125 20.480469 184.921875 20.765625 185.203125 C 21.046875 185.484375 21.265625 185.8125 21.417969 186.179688 C 21.570312 186.550781 21.644531 186.933594 21.644531 187.332031 C 21.644531 187.734375 21.570312 188.117188 21.417969 188.488281 C 21.265625 188.855469 21.046875 189.179688 20.765625 189.464844 C 20.480469 189.746094 20.15625 189.964844 19.785156 190.117188 C 19.417969 190.269531 19.035156 190.347656 18.632812 190.347656 L 6.582031 190.347656 C 6.632812 193.242188 6.75 196.132812 6.9375 199.023438 C 7.121094 201.914062 7.378906 204.796875 7.703125 207.675781 C 8.03125 210.550781 8.425781 213.421875 8.886719 216.277344 C 9.351562 219.136719 9.882812 221.984375 10.484375 224.816406 C 11.082031 227.648438 11.75 230.464844 12.488281 233.265625 C 13.222656 236.066406 14.023438 238.847656 14.894531 241.613281 C 15.761719 244.375 16.699219 247.113281 17.699219 249.832031 C 18.699219 252.546875 19.765625 255.242188 20.894531 257.90625 C 22.027344 260.574219 23.21875 263.210938 24.476562 265.820312 C 25.734375 268.429688 27.050781 271.003906 28.433594 273.550781 C 29.8125 276.09375 31.253906 278.605469 32.757812 281.082031 C 34.257812 283.558594 35.820312 285.996094 37.4375 288.398438 C 39.054688 290.800781 40.730469 293.160156 42.464844 295.480469 C 44.195312 297.800781 45.984375 300.078125 47.824219 302.3125 C 49.667969 304.546875 51.5625 306.738281 53.507812 308.882812 C 55.453125 311.023438 57.453125 313.121094 59.5 315.167969 C 61.546875 317.214844 63.644531 319.214844 65.785156 321.160156 C 67.929688 323.105469 70.121094 325 72.355469 326.84375 C 74.589844 328.683594 76.867188 330.472656 79.1875 332.203125 C 81.507812 333.9375 83.867188 335.613281 86.269531 337.230469 C 88.671875 338.847656 91.109375 340.410156 93.585938 341.910156 C 96.0625 343.414062 98.574219 344.855469 101.117188 346.234375 C 103.664062 347.617188 106.242188 348.933594 108.847656 350.191406 C 111.457031 351.449219 114.09375 352.640625 116.761719 353.773438 C 119.425781 354.902344 122.121094 355.96875 124.835938 356.96875 C 127.554688 357.96875 130.292969 358.90625 133.054688 359.773438 C 135.820312 360.644531 138.601562 361.445312 141.402344 362.179688 C 144.203125 362.917969 147.019531 363.585938 149.851562 364.183594 C 152.683594 364.785156 155.53125 365.316406 158.390625 365.78125 C 161.246094 366.242188 164.117188 366.636719 166.992188 366.964844 C 169.871094 367.289062 172.753906 367.546875 175.644531 367.730469 C 178.535156 367.917969 181.425781 368.035156 184.320312 368.082031 L 184.320312 356.035156 C 184.320312 355.632812 184.398438 355.25 184.550781 354.882812 C 184.703125 354.511719 184.921875 354.1875 185.203125 353.902344 C 185.484375 353.621094 185.8125 353.402344 186.179688 353.25 C 186.550781 353.097656 186.933594 353.019531 187.332031 353.019531 C 187.734375 353.019531 188.117188 353.097656 188.488281 353.25 C 188.855469 353.402344 189.179688 353.621094 189.464844 353.902344 C 189.746094 354.1875 189.964844 354.511719 190.117188 354.882812 C 190.269531 355.25 190.347656 355.632812 190.347656 356.035156 L 190.347656 368.082031 C 193.242188 368.035156 196.132812 367.917969 199.023438 367.730469 C 201.914062 367.546875 204.796875 367.289062 207.675781 366.964844 C 210.550781 366.636719 213.421875 366.242188 216.277344 365.78125 C 219.136719 365.316406 221.984375 364.785156 224.816406 364.183594 C 227.648438 363.585938 230.464844 362.917969 233.265625 362.179688 C 236.066406 361.445312 238.847656 360.644531 241.613281 359.773438 C 244.375 358.90625 247.113281 357.96875 249.832031 356.96875 C 252.546875 355.96875 255.242188 354.902344 257.90625 353.773438 C 260.574219 352.640625 263.210938 351.449219 265.820312 350.191406 C 268.429688 348.933594 271.003906 347.617188 273.550781 346.234375 C 276.09375 344.855469 278.605469 343.414062 281.082031 341.910156 C 283.558594 340.410156 285.996094 338.847656 288.398438 337.230469 C 290.800781 335.613281 293.160156 333.9375 295.480469 332.203125 C 297.800781 330.472656 300.078125 328.683594 302.3125 326.84375 C 304.546875 325 306.738281 323.105469 308.882812 321.160156 C 311.023438 319.214844 313.121094 317.214844 315.167969 315.167969 C 317.214844 313.121094 319.214844 311.023438 321.160156 308.882812 C 323.105469 306.738281 325 304.546875 326.84375 302.3125 C 328.683594 300.078125 330.472656 297.800781 332.203125 295.480469 C 333.9375 293.160156 335.613281 290.800781 337.230469 288.398438 C 338.847656 285.996094 340.410156 283.558594 341.910156 281.082031 C 343.414062 278.605469 344.855469 276.09375 346.234375 273.550781 C 347.617188 271.003906 348.933594 268.429688 350.191406 265.820312 C 351.449219 263.210938 352.640625 260.574219 353.773438 257.90625 C 354.902344 255.242188 355.96875 252.546875 356.96875 249.832031 C 357.96875 247.113281 358.90625 244.375 359.773438 241.613281 C 360.644531 238.847656 361.445312 236.066406 362.179688 233.265625 C 362.917969 230.464844 363.585938 227.648438 364.183594 224.816406 C 364.785156 221.984375 365.316406 219.136719 365.78125 216.277344 C 366.242188 213.421875 366.636719 210.550781 366.964844 207.675781 C 367.289062 204.796875 367.546875 201.914062 367.730469 199.023438 C 367.917969 196.132812 368.035156 193.242188 368.082031 190.347656 L 356.035156 190.347656 C 355.632812 190.347656 355.25 190.269531 354.882812 190.117188 C 354.511719 189.964844 354.1875 189.746094 353.902344 189.464844 C 353.621094 189.179688 353.402344 188.855469 353.25 188.488281 C 353.097656 188.117188 353.019531 187.734375 353.019531 187.332031 C 353.019531 186.933594 353.097656 186.550781 353.25 186.179688 C 353.402344 185.8125 353.621094 185.484375 353.902344 185.203125 C 354.1875 184.921875 354.511719 184.703125 354.882812 184.550781 C 355.25 184.398438 355.632812 184.320312 356.035156 184.320312 Z M 187.332031 337.957031 C 184.867188 337.957031 182.40625 337.898438 179.941406 337.777344 C 177.480469 337.65625 175.023438 337.476562 172.570312 337.234375 C 170.117188 336.992188 167.671875 336.691406 165.234375 336.328125 C 162.792969 335.96875 160.367188 335.546875 157.949219 335.066406 C 155.53125 334.582031 153.125 334.042969 150.734375 333.445312 C 148.34375 332.847656 145.96875 332.1875 143.609375 331.472656 C 141.25 330.757812 138.910156 329.984375 136.589844 329.152344 C 134.269531 328.324219 131.96875 327.4375 129.691406 326.492188 C 127.414062 325.550781 125.160156 324.550781 122.933594 323.496094 C 120.703125 322.445312 118.503906 321.335938 116.328125 320.171875 C 114.15625 319.011719 112.011719 317.796875 109.898438 316.53125 C 107.78125 315.261719 105.699219 313.945312 103.652344 312.574219 C 101.601562 311.203125 99.585938 309.785156 97.605469 308.316406 C 95.625 306.847656 93.683594 305.332031 91.777344 303.769531 C 89.871094 302.203125 88.007812 300.59375 86.179688 298.941406 C 84.355469 297.285156 82.570312 295.585938 80.824219 293.84375 C 79.082031 292.097656 77.382812 290.3125 75.726562 288.488281 C 74.074219 286.660156 72.464844 284.796875 70.898438 282.890625 C 69.335938 280.984375 67.820312 279.042969 66.351562 277.0625 C 64.882812 275.082031 63.464844 273.066406 62.09375 271.015625 C 60.722656 268.96875 59.40625 266.886719 58.136719 264.769531 C 56.871094 262.65625 55.65625 260.511719 54.496094 258.339844 C 53.332031 256.164062 52.222656 253.960938 51.171875 251.734375 C 50.117188 249.507812 49.117188 247.253906 48.175781 244.976562 C 47.230469 242.699219 46.34375 240.398438 45.515625 238.078125 C 44.683594 235.757812 43.910156 233.417969 43.195312 231.058594 C 42.480469 228.699219 41.820312 226.324219 41.222656 223.933594 C 40.625 221.542969 40.085938 219.136719 39.601562 216.71875 C 39.121094 214.300781 38.699219 211.875 38.339844 209.433594 C 37.976562 206.996094 37.675781 204.550781 37.433594 202.097656 C 37.191406 199.644531 37.011719 197.1875 36.890625 194.726562 C 36.769531 192.261719 36.707031 189.800781 36.707031 187.332031 C 36.707031 184.867188 36.769531 182.40625 36.890625 179.941406 C 37.011719 177.480469 37.191406 175.023438 37.433594 172.570312 C 37.675781 170.117188 37.976562 167.671875 38.339844 165.234375 C 38.699219 162.792969 39.121094 160.367188 39.601562 157.949219 C 40.085938 155.53125 40.625 153.125 41.222656 150.734375 C 41.820312 148.34375 42.480469 145.96875 43.195312 143.609375 C 43.910156 141.25 44.683594 138.910156 45.515625 136.589844 C 46.34375 134.269531 47.230469 131.96875 48.175781 129.691406 C 49.117188 127.414062 50.117188 125.160156 51.171875 122.933594 C 52.222656 120.703125 53.332031 118.503906 54.496094 116.328125 C 55.65625 114.15625 56.871094 112.011719 58.136719 109.898438 C 59.40625 107.78125 60.722656 105.699219 62.09375 103.652344 C 63.464844 101.601562 64.882812 99.585938 66.351562 97.605469 C 67.820312 95.625 69.335938 93.683594 70.898438 91.777344 C 72.464844 89.871094 74.074219 88.007812 75.726562 86.179688 C 77.382812 84.355469 79.082031 82.570312 80.824219 80.824219 C 82.570312 79.082031 84.355469 77.382812 86.179688 75.726562 C 88.007812 74.074219 89.871094 72.464844 91.777344 70.898438 C 93.683594 69.335938 95.625 67.820312 97.605469 66.351562 C 99.585938 64.882812 101.601562 63.464844 103.652344 62.09375 C 105.699219 60.722656 107.78125 59.40625 109.898438 58.136719 C 112.011719 56.871094 114.15625 55.65625 116.328125 54.496094 C 118.503906 53.332031 120.703125 52.222656 122.933594 51.171875 C 125.160156 50.117188 127.414062 49.117188 129.691406 48.175781 C 131.96875 47.230469 134.269531 46.34375 136.589844 45.515625 C 138.910156 44.683594 141.25 43.910156 143.609375 43.195312 C 145.96875 42.480469 148.34375 41.820312 150.734375 41.222656 C 153.125 40.625 155.53125 40.085938 157.949219 39.601562 C 160.367188 39.121094 162.792969 38.699219 165.234375 38.339844 C 167.671875 37.976562 170.117188 37.675781 172.570312 37.433594 C 175.023438 37.191406 177.480469 37.011719 179.941406 36.890625 C 182.40625 36.769531 184.867188 36.707031 187.332031 36.707031 C 189.800781 36.707031 192.261719 36.769531 194.726562 36.890625 C 197.1875 37.011719 199.644531 37.191406 202.097656 37.433594 C 204.550781 37.675781 206.996094 37.976562 209.433594 38.339844 C 211.875 38.699219 214.300781 39.121094 216.71875 39.601562 C 219.136719 40.085938 221.542969 40.625 223.933594 41.222656 C 226.324219 41.820312 228.699219 42.480469 231.058594 43.195312 C 233.417969 43.910156 235.757812 44.683594 238.078125 45.515625 C 240.398438 46.34375 242.699219 47.230469 244.976562 48.175781 C 247.253906 49.117188 249.507812 50.117188 251.734375 51.171875 C 253.960938 52.222656 256.164062 53.332031 258.339844 54.496094 C 260.511719 55.65625 262.65625 56.871094 264.769531 58.136719 C 266.886719 59.40625 268.96875 60.722656 271.015625 62.09375 C 273.066406 63.464844 275.082031 64.882812 277.0625 66.351562 C 279.042969 67.820312 280.984375 69.335938 282.890625 70.898438 C 284.796875 72.464844 286.660156 74.074219 288.488281 75.726562 C 290.3125 77.382812 292.097656 79.082031 293.84375 80.824219 C 295.585938 82.570312 297.285156 84.355469 298.941406 86.179688 C 300.59375 88.007812 302.203125 89.871094 303.769531 91.777344 C 305.332031 93.683594 306.847656 95.625 308.316406 97.605469 C 309.785156 99.585938 311.203125 101.601562 312.574219 103.652344 C 313.945312 105.699219 315.261719 107.78125 316.53125 109.898438 C 317.796875 112.011719 319.011719 114.15625 320.171875 116.328125 C 321.335938 118.503906 322.445312 120.703125 323.496094 122.933594 C 324.550781 125.160156 325.550781 127.414062 326.492188 129.691406 C 327.4375 131.96875 328.324219 134.269531 329.152344 136.589844 C 329.984375 138.910156 330.757812 141.25 331.472656 143.609375 C 332.1875 145.96875 332.847656 148.34375 333.445312 150.734375 C 334.042969 153.125 334.582031 155.53125 335.066406 157.949219 C 335.546875 160.367188 335.96875 162.792969 336.328125 165.234375 C 336.691406 167.671875 336.992188 170.117188 337.234375 172.570312 C 337.476562 175.023438 337.65625 177.480469 337.777344 179.941406 C 337.898438 182.40625 337.957031 184.867188 337.957031 187.332031 C 337.957031 189.800781 337.898438 192.261719 337.777344 194.726562 C 337.65625 197.1875 337.476562 199.644531 337.234375 202.097656 C 336.992188 204.550781 336.691406 206.996094 336.328125 209.433594 C 335.96875 211.875 335.546875 214.300781 335.066406 216.71875 C 334.582031 219.136719 334.042969 221.542969 333.445312 223.933594 C 332.847656 226.324219 332.1875 228.699219 331.472656 231.058594 C 330.757812 233.417969 329.984375 235.757812 329.152344 238.078125 C 328.324219 240.398438 327.4375 242.699219 326.492188 244.976562 C 325.550781 247.253906 324.550781 249.507812 323.496094 251.734375 C 322.445312 253.960938 321.335938 256.164062 320.171875 258.339844 C 319.011719 260.511719 317.796875 262.65625 316.53125 264.769531 C 315.261719 266.886719 313.945312 268.96875 312.574219 271.015625 C 311.203125 273.066406 309.785156 275.082031 308.316406 277.0625 C 306.847656 279.042969 305.332031 280.984375 303.769531 282.890625 C 302.203125 284.796875 300.59375 286.660156 298.941406 288.488281 C 297.285156 290.3125 295.585938 292.097656 293.84375 293.84375 C 292.097656 295.585938 290.3125 297.285156 288.488281 298.941406 C 286.660156 300.59375 284.796875 302.203125 282.890625 303.769531 C 280.984375 305.332031 279.042969 306.847656 277.0625 308.316406 C 275.082031 309.785156 273.066406 311.203125 271.015625 312.574219 C 268.96875 313.945312 266.886719 315.261719 264.769531 316.53125 C 262.65625 317.796875 260.511719 319.011719 258.339844 320.171875 C 256.164062 321.335938 253.960938 322.445312 251.734375 323.496094 C 249.507812 324.550781 247.253906 325.550781 244.976562 326.492188 C 242.699219 327.4375 240.398438 328.324219 238.078125 329.152344 C 235.757812 329.984375 233.417969 330.757812 231.058594 331.472656 C 228.699219 332.1875 226.324219 332.847656 223.933594 333.445312 C 221.542969 334.042969 219.136719 334.582031 216.71875 335.066406 C 214.300781 335.546875 211.875 335.96875 209.433594 336.328125 C 206.996094 336.691406 204.550781 336.992188 202.097656 337.234375 C 199.644531 337.476562 197.1875 337.65625 194.726562 337.777344 C 192.261719 337.898438 189.800781 337.957031 187.332031 337.957031 Z M 187.332031 337.957031 "/></g></g></svg>