<svg xmlns="http://www.w3.org/2000/svg" xmlns:xlink="http://www.w3.org/1999/xlink" width="500" zoomAndPan="magnify" viewBox="0 0 375 374.999991" height="500" preserveAspectRatio="xMidYMid meet" version="1.2"><defs><clipPath id="b94c7d1b01"><path d="M 30.703125 18.445312 L 274 18.445312 L 274 327 L 30.703125 327 Z M 30.703125 18.445312 "/></clipPath><clipPath id="f21a19ca81"><path d="M 190 175 L 344.203125 175 L 344.203125 356.695312 L 190 356.695312 Z M 190 175 "/></clipPath></defs><g id="9b871c3fc8"><g clip-rule="nonzero" clip-path="url(#b94c7d1b01)"><path style=" stroke:none;fill-rule:nonzero;fill:#009e83;fill-opacity:1;" d="M 174.269531 313.039062 L 50.980469 313.039062 C 47.300781 313.039062 44.3125 310.050781 44.3125 306.386719 L 44.3125 39.035156 C 44.3125 35.355469 47.300781 32.371094 50.980469 32.371094 L 252.722656 32.371094 C 256.398438 32.371094 259.386719 35.355469 259.386719 39.035156 L 259.386719 147.546875 C 259.386719 151.316406 262.433594 154.363281 266.203125 154.363281 C 269.964844 154.363281 273.019531 151.316406 273.019531 147.546875 L 273.019531 39.035156 C 273.019531 27.84375 263.914062 18.738281 252.722656 18.738281 L 50.980469 18.738281 C 39.785156 18.738281 30.683594 27.84375 30.683594 39.035156 L 30.683594 306.386719 C 30.683594 317.566406 39.785156 326.671875 50.980469 326.671875 L 174.269531 326.671875 C 178.035156 326.671875 181.082031 323.617188 181.082031 319.847656 C 181.082031 316.085938 178.035156 313.039062 174.269531 313.039062 "/></g><path style=" stroke:none;fill-rule:nonzero;fill:#009e83;fill-opacity:1;" d="M 144.515625 92.445312 L 192.683594 92.445312 C 196.445312 92.445312 199.5 89.390625 199.5 85.632812 C 199.5 81.863281 196.445312 78.816406 192.683594 78.816406 L 144.515625 78.816406 C 140.746094 78.816406 137.699219 81.863281 137.699219 85.632812 C 137.699219 89.390625 140.746094 92.445312 144.515625 92.445312 "/><path style=" stroke:none;fill-rule:nonzero;fill:#009e83;fill-opacity:1;" d="M 233.449219 115.976562 C 233.449219 112.214844 230.394531 109.160156 226.632812 109.160156 L 142.601562 109.160156 C 138.832031 109.160156 135.785156 112.214844 135.785156 115.976562 C 135.785156 119.742188 138.832031 122.796875 142.601562 122.796875 L 226.632812 122.796875 C 230.394531 122.796875 233.449219 119.742188 233.449219 115.976562 "/><path style=" stroke:none;fill-rule:nonzero;fill:#009e83;fill-opacity:1;" d="M 142.601562 155.375 C 138.832031 155.375 135.785156 158.429688 135.785156 162.191406 C 135.785156 165.957031 138.832031 169.003906 142.601562 169.003906 L 190.769531 169.003906 C 194.539062 169.003906 197.59375 165.957031 197.59375 162.191406 C 197.59375 158.429688 194.539062 155.375 190.769531 155.375 L 142.601562 155.375 "/><path style=" stroke:none;fill-rule:nonzero;fill:#009e83;fill-opacity:1;" d="M 182.265625 186.804688 L 142.59375 186.804688 C 138.828125 186.804688 135.773438 189.851562 135.773438 193.621094 C 135.773438 197.378906 138.828125 200.433594 142.59375 200.433594 L 182.265625 200.433594 C 186.03125 200.433594 189.082031 197.378906 189.082031 193.621094 C 189.082031 189.851562 186.03125 186.804688 182.265625 186.804688 "/><path style=" stroke:none;fill-rule:nonzero;fill:#009e83;fill-opacity:1;" d="M 173.441406 233.019531 L 142.59375 233.019531 C 138.828125 233.019531 135.773438 236.066406 135.773438 239.835938 C 135.773438 243.59375 138.828125 246.648438 142.59375 246.648438 L 173.441406 246.648438 C 177.207031 246.648438 180.261719 243.59375 180.261719 239.835938 C 180.261719 236.066406 177.207031 233.019531 173.441406 233.019531 "/><path style=" stroke:none;fill-rule:nonzero;fill:#009e83;fill-opacity:1;" d="M 142.59375 264.414062 C 138.828125 264.414062 135.773438 267.46875 135.773438 271.238281 C 135.773438 274.996094 138.828125 278.050781 142.59375 278.050781 L 173.472656 278.050781 C 177.234375 278.050781 180.289062 274.996094 180.289062 271.238281 C 180.289062 267.46875 177.234375 264.414062 173.472656 264.414062 L 142.59375 264.414062 "/><path style=" stroke:none;fill-rule:nonzero;fill:#009e83;fill-opacity:1;" d="M 105.429688 239.34375 L 84.304688 259.988281 L 74.777344 250.453125 C 72.125 247.789062 67.808594 247.785156 65.140625 250.445312 C 62.480469 253.105469 62.472656 257.414062 65.132812 260.078125 L 74.65625 269.621094 C 77.296875 272.269531 80.8125 273.722656 84.546875 273.722656 C 88.289062 273.722656 91.804688 272.269531 94.445312 269.621094 L 115.066406 248.976562 C 117.730469 246.316406 117.730469 242 115.066406 239.339844 C 112.40625 236.683594 108.089844 236.675781 105.429688 239.34375 "/><path style=" stroke:none;fill-rule:nonzero;fill:#009e83;fill-opacity:1;" d="M 115.066406 161.714844 C 112.40625 159.054688 108.089844 159.046875 105.429688 161.714844 L 84.304688 182.363281 L 74.785156 172.804688 C 72.132812 170.140625 67.8125 170.132812 65.148438 172.785156 C 62.480469 175.445312 62.472656 179.757812 65.125 182.425781 L 74.65625 191.996094 C 77.296875 194.636719 80.808594 196.089844 84.546875 196.089844 C 88.292969 196.089844 91.804688 194.636719 94.445312 191.992188 L 115.066406 171.347656 C 117.730469 168.6875 117.730469 164.367188 115.066406 161.714844 "/><path style=" stroke:none;fill-rule:nonzero;fill:#009e83;fill-opacity:1;" d="M 116.59375 84.613281 C 113.933594 81.957031 109.617188 81.945312 106.957031 84.621094 L 85.832031 105.269531 L 76.3125 95.710938 C 73.660156 93.039062 69.339844 93.039062 66.675781 95.683594 C 64.007812 98.347656 64 102.664062 66.652344 105.324219 L 76.183594 114.894531 C 78.824219 117.535156 82.335938 118.988281 86.074219 118.988281 C 89.820312 118.988281 93.332031 117.535156 95.972656 114.890625 L 116.59375 94.253906 C 119.257812 91.589844 119.257812 87.273438 116.59375 84.613281 "/><g clip-rule="nonzero" clip-path="url(#f21a19ca81)"><path style=" stroke:none;fill-rule:nonzero;fill:#009e83;fill-opacity:1;" d="M 330.589844 274.527344 C 330.589844 285.417969 327.675781 296.265625 322.164062 305.890625 C 316.660156 315.484375 308.800781 323.464844 299.429688 328.972656 C 295.34375 331.367188 285.847656 335.800781 272.671875 341.457031 C 269.285156 342.914062 265.414062 342.878906 262.046875 341.359375 C 248.042969 335.058594 237.351562 330.085938 235.453125 328.972656 C 225.996094 323.410156 218.105469 315.421875 212.636719 305.882812 C 207.183594 296.339844 204.300781 285.5 204.300781 274.527344 L 204.300781 227.160156 C 204.300781 220.921875 206.253906 214.949219 209.953125 209.898438 C 213.648438 204.847656 218.753906 201.1875 224.699219 199.300781 L 248.398438 191.820312 C 254.558594 189.867188 260.96875 188.875 267.4375 188.875 C 273.914062 188.875 280.320312 189.867188 286.5 191.820312 L 310.183594 199.300781 C 316.144531 201.1875 321.242188 204.855469 324.933594 209.898438 C 328.632812 214.957031 330.589844 220.929688 330.589844 227.160156 Z M 335.9375 201.847656 C 335.9375 201.847656 335.9375 201.839844 335.933594 201.839844 C 330.515625 194.449219 323.035156 189.078125 314.296875 186.308594 L 290.605469 178.820312 C 275.617188 174.070312 259.285156 174.0625 244.28125 178.820312 L 220.59375 186.308594 C 211.855469 189.070312 204.375 194.441406 198.949219 201.839844 C 193.535156 209.261719 190.667969 218.011719 190.667969 227.160156 L 190.667969 274.527344 C 190.667969 287.867188 194.171875 301.050781 200.8125 312.660156 C 207.457031 324.261719 217.046875 333.960938 228.554688 340.730469 C 231.886719 342.675781 247.464844 349.75 256.449219 353.796875 C 259.945312 355.363281 263.703125 356.160156 267.464844 356.160156 C 271.078125 356.160156 274.6875 355.433594 278.0625 353.980469 C 287.734375 349.824219 300.488281 344.15625 306.339844 340.722656 C 317.746094 334.023438 327.304688 324.320312 333.992188 312.671875 C 340.683594 300.984375 344.21875 287.792969 344.21875 274.527344 L 344.21875 227.160156 C 344.21875 218.015625 341.355469 209.261719 335.9375 201.847656 "/></g><path style=" stroke:none;fill-rule:nonzero;fill:#009e83;fill-opacity:1;" d="M 297.667969 239.074219 L 256.929688 279.871094 C 256.5 280.285156 256.136719 280.496094 255.882812 280.5625 C 254.804688 280.871094 253.8125 280.640625 253.085938 279.90625 L 237.222656 264.042969 C 234.5625 261.375 230.246094 261.375 227.582031 264.042969 C 224.921875 266.703125 224.921875 271.019531 227.582031 273.679688 L 243.433594 289.523438 C 246.558594 292.675781 250.664062 294.34375 254.941406 294.34375 C 256.460938 294.34375 258.007812 294.132812 259.542969 293.699219 C 262.0625 293.007812 264.464844 291.582031 266.535156 289.539062 L 307.3125 248.707031 C 309.972656 246.039062 309.964844 241.726562 307.304688 239.066406 C 304.636719 236.398438 300.320312 236.40625 297.667969 239.074219 "/></g></svg>